<svg width="16.621140" height="14.994995" viewBox="0 0 16.6211 14.995" fill="none" xmlns="http://www.w3.org/2000/svg" xmlns:xlink="http://www.w3.org/1999/xlink">
	<desc>
			Created with Pixso.
	</desc>
	<defs/>
	<path id="Vector" d="M8.31094 1.29834C7.40294 0.46344 6.21445 6.10352e-05 4.98094 0C4.32805 0.000671387 3.68175 0.130493 3.07922 0.381897C2.47668 0.633301 1.92982 1.0014 1.47011 1.46503C-0.490723 3.43414 -0.489899 6.51416 1.47177 8.47498L7.58177 14.585C7.72343 14.8342 7.99677 14.995 8.31094 14.995C8.43994 14.9938 8.56685 14.9623 8.68147 14.9031C8.7961 14.8439 8.89523 14.7586 8.97093 14.6542L15.1501 8.47498C17.1118 6.51331 17.1118 3.43414 15.1484 1.46167C14.6889 0.998901 14.1425 0.631592 13.5406 0.380737C12.9386 0.129883 12.2931 0.000488281 11.6409 0C10.4075 0.000183105 9.21902 0.463562 8.31094 1.29834ZM13.9701 2.64001C15.2726 3.94916 15.2734 5.99414 13.9718 7.29669L8.31094 12.9575L2.6501 7.29669C1.34843 5.99414 1.34927 3.94916 2.64844 2.64331C3.28177 2.01331 4.11011 1.66669 4.98094 1.66669C5.85178 1.66669 6.67677 2.01331 7.3051 2.64166L7.72177 3.05835C7.79909 3.1358 7.89093 3.19727 7.99202 3.23914C8.09312 3.28107 8.20149 3.30267 8.31094 3.30267C8.42038 3.30267 8.52875 3.28107 8.62985 3.23914C8.73094 3.19727 8.82278 3.1358 8.9001 3.05835L9.31677 2.64166C10.5768 1.38416 12.7118 1.38751 13.9701 2.64001Z" fill="#FFFFFF" fill-opacity="1.000000" fill-rule="nonzero"/>
</svg>
